<svg xmlns="http://www.w3.org/2000/svg" xmlns:ooo="http://xml.openoffice.org/svg/export" xmlns:svg="http://www.w3.org/2000/svg" id="svg5288" width="1000" height="578.98" fill-rule="evenodd" stroke-linejoin="round" stroke-width="28.222" preserveAspectRatio="xMidYMid" version="1.2" viewBox="0 0 28222.223 16340.102" xml:space="preserve"><metadata id="metadata5374"/><defs id="defs5290" class="ClipPathGroup"><clipPath id="presentation_clip_path_shrink" clipPathUnits="userSpaceOnUse"><rect id="rect5296" width="29641" height="20958" x="29" y="21"/></clipPath></defs><defs id="defs5302" class="EmbeddedBulletChars"><g id="bullet-char-template(57356)" transform="scale(4.8828125e-4,-4.8828125e-4)"><path id="path5305" d="M 580,1141 1163,571 580,0 -4,571 580,1141 Z"/></g><g id="bullet-char-template(57354)" transform="scale(4.8828125e-4,-4.8828125e-4)"><path id="path5308" d="m 8,1128 1129,0 L 1137,0 8,0 8,1128 Z"/></g><g id="bullet-char-template(10146)" transform="scale(4.8828125e-4,-4.8828125e-4)"><path id="path5311" d="M 174,0 602,739 174,1481 1456,739 174,0 Z m 1184,739 -1049,607 350,-607 699,0 z"/></g><g id="bullet-char-template(10132)" transform="scale(4.8828125e-4,-4.8828125e-4)"><path id="path5314" d="M 2015,739 1276,0 717,0 l 543,543 -1086,0 0,393 1086,0 -543,545 557,0 741,-742 z"/></g><g id="bullet-char-template(10007)" transform="scale(4.8828125e-4,-4.8828125e-4)"><path id="path5317" d="m 0,-2 c -7,16 -16,29 -25,39 l 381,530 c -94,256 -141,385 -141,387 0,25 13,38 40,38 9,0 21,-2 34,-5 21,4 42,12 65,25 l 27,-13 111,-251 280,301 64,-25 24,25 c 21,-10 41,-24 62,-43 C 886,937 835,863 770,784 769,783 710,716 594,584 L 774,223 c 0,-27 -21,-55 -63,-84 l 16,-20 C 717,90 699,76 672,76 641,76 570,178 457,381 L 164,-76 c -22,-34 -53,-51 -92,-51 -42,0 -63,17 -64,51 -7,9 -10,24 -10,44 0,9 1,19 2,30 z"/></g><g id="bullet-char-template(10004)" transform="scale(4.8828125e-4,-4.8828125e-4)"><path id="path5320" d="M 285,-33 C 182,-33 111,30 74,156 52,228 41,333 41,471 c 0,78 14,145 41,201 34,71 87,106 158,106 53,0 88,-31 106,-94 l 23,-176 c 8,-64 28,-97 59,-98 l 735,706 c 11,11 33,17 66,17 42,0 63,-15 63,-46 l 0,-122 c 0,-36 -10,-64 -30,-84 L 442,47 C 390,-6 338,-33 285,-33 Z"/></g><g id="bullet-char-template(9679)" transform="scale(4.8828125e-4,-4.8828125e-4)"><path id="path5323" d="M 813,0 C 632,0 489,54 383,161 276,268 223,411 223,592 c 0,181 53,324 160,431 106,107 249,161 430,161 179,0 323,-54 432,-161 108,-107 162,-251 162,-431 0,-180 -54,-324 -162,-431 C 1136,54 992,0 813,0 Z"/></g><g id="bullet-char-template(8226)" transform="scale(4.8828125e-4,-4.8828125e-4)"><path id="path5326" d="m 346,457 c -73,0 -137,26 -191,78 -54,51 -81,114 -81,188 0,73 27,136 81,188 54,52 118,78 191,78 73,0 134,-26 185,-79 51,-51 77,-114 77,-187 0,-75 -25,-137 -76,-188 -50,-52 -112,-78 -186,-78 z"/></g><g id="bullet-char-template(8211)" transform="scale(4.8828125e-4,-4.8828125e-4)"><path id="path5329" d="m -4,459 1139,0 0,147 -1139,0 0,-147 z"/></g><g id="bullet-char-template(61548)" transform="scale(4.8828125e-4,-4.8828125e-4)"><path id="path5332" d="m 173,740 c 0,163 58,303 173,419 116,115 255,173 419,173 163,0 302,-58 418,-173 116,-116 174,-256 174,-419 0,-163 -58,-303 -174,-418 C 1067,206 928,148 765,148 601,148 462,206 346,322 231,437 173,577 173,740 Z"/></g></defs><rect id="rect5354" width="28222.223" height="16340.104" x="0" y="-.002" fill="none" stroke="none" class="BoundingBox"/><path id="path5356" fill="#000" stroke="none" d="m 14110.437,-0.00175113 c 7793.72,0 14110.437,3656.76245113 14110.437,8168.70305113 0,4513.2887 -6316.717,8170.0517 -14110.437,8170.0517 C 6316.717,16338.753 0,12681.99 0,8168.7013 0,3656.7607 6316.717,-0.00175113 14110.437,-0.00175113 Z"/><rect id="rect5361" width="26750.615" height="14794.31" x="691.966" y="732.429" fill="none" stroke="none" class="BoundingBox"/><path id="path5363" fill="#ff0" stroke="none" d="m 14065.925,732.42995 c 7387.712,0 13375.307,3310.10505 13375.307,7397.15435 0,4084.3517 -5987.595,7395.8057 -13375.307,7395.8057 -7386.3644,0 -13373.95921,-3311.454 -13373.95921,-7395.8057 0,-4087.0493 5987.59481,-7397.15435 13373.95921,-7397.15435 z"/><rect id="rect5368" width="24829.836" height="12189.658" x="1711.705" y="1742.726" fill="none" stroke="none" class="BoundingBox"/><path id="path5370" fill="#000" stroke="none" d="m 9077.8359,2190.5485 c -623.1739,903.7371 -963.0869,1796.6832 -673.0818,2666.6986 542.2422,1574.1212 2873.0739,1982.8262 3913.0459,435.6822 352.053,-562.4751 563.824,-1789.9388 548.987,-3550.2027 l 708.152,1308.3954 c 393.868,-122.7464 782.34,-138.9327 1166.765,-4.0466 l 642.058,-1205.8819 c 40.466,1416.3043 134.886,2638.3725 423.542,3172.5215 732.432,1498.5843 3299.315,1847.9393 4103.236,-94.4203 200.98,-1021.0879 -83.629,-1914.034 -763.455,-2703.1178 1955.848,501.7764 3778.16,1231.5103 5375.212,2373.9957 1574.121,1339.4187 2236.411,2707.1647 1953.151,4207.0977 -348.007,1842.5447 -2012.501,3504.3417 -4503.848,4417.5207 524.707,-832.248 843.038,-1861.429 442.427,-2461.672 -570.569,-1122.2527 -2421.206,-659.593 -3647.321,803.921 -909.133,-1204.533 -1704.961,-1580.8647 -2448.183,-1139.788 -1102.02,795.829 -1842.545,1953.151 -2181.109,3513.784 -437.031,-1390.676 -1019.739,-2531.813 -1856.033,-3239.965 -968.482,-926.6667 -1865.475,-337.215 -2766.5141,847.085 -1401.4668,-1409.56 -2949.9595,-1680.6807 -3516.4812,-909.132 -368.2391,388.472 -296.7494,1230.161 299.4472,2616.79 -1873.5682,-648.802 -3237.2668,-1939.662 -4246.215,-3717.4607 -892.9461,-1714.403 0,-3814.58 2355.1116,-5391.398 C 5914.7563,3092.9367 7518.5523,2562.8342 9077.8359,2190.5485 Z"/></svg>